%TF.GenerationSoftware,KiCad,Pcbnew,(5.1.6)-1*%
%TF.CreationDate,2021-02-28T15:35:06+06:00*%
%TF.ProjectId,STM32MCU + Buck Converter,53544d33-324d-4435-9520-2b204275636b,rev?*%
%TF.SameCoordinates,Original*%
%TF.FileFunction,Copper,L4,Bot*%
%TF.FilePolarity,Positive*%
%FSLAX46Y46*%
G04 Gerber Fmt 4.6, Leading zero omitted, Abs format (unit mm)*
G04 Created by KiCad (PCBNEW (5.1.6)-1) date 2021-02-28 15:35:06*
%MOMM*%
%LPD*%
G01*
G04 APERTURE LIST*
%TA.AperFunction,ComponentPad*%
%ADD10C,5.000000*%
%TD*%
%TA.AperFunction,ComponentPad*%
%ADD11O,1.900000X1.200000*%
%TD*%
%TA.AperFunction,ComponentPad*%
%ADD12C,1.450000*%
%TD*%
%TA.AperFunction,ComponentPad*%
%ADD13C,2.600000*%
%TD*%
%TA.AperFunction,ComponentPad*%
%ADD14R,2.600000X2.600000*%
%TD*%
%TA.AperFunction,ComponentPad*%
%ADD15O,1.350000X1.350000*%
%TD*%
%TA.AperFunction,ComponentPad*%
%ADD16R,1.350000X1.350000*%
%TD*%
%TA.AperFunction,ComponentPad*%
%ADD17C,2.010000*%
%TD*%
%TA.AperFunction,ComponentPad*%
%ADD18O,1.730000X2.030000*%
%TD*%
%TA.AperFunction,ComponentPad*%
%ADD19R,1.730000X2.030000*%
%TD*%
%TA.AperFunction,ComponentPad*%
%ADD20C,2.400000*%
%TD*%
%TA.AperFunction,ComponentPad*%
%ADD21O,2.400000X2.400000*%
%TD*%
%TA.AperFunction,ViaPad*%
%ADD22C,0.800000*%
%TD*%
%TA.AperFunction,Conductor*%
%ADD23C,0.250000*%
%TD*%
%TA.AperFunction,Conductor*%
%ADD24C,0.200000*%
%TD*%
G04 APERTURE END LIST*
D10*
%TO.P,REF\u002A\u002A,1*%
%TO.N,N/C*%
X83312000Y-103886000D03*
%TD*%
%TO.P,REF\u002A\u002A,1*%
%TO.N,N/C*%
X83058000Y-37592000D03*
%TD*%
D11*
%TO.P,J5,6*%
%TO.N,N/C*%
X185133500Y-69144000D03*
X185133500Y-76144000D03*
D12*
X182433500Y-70144000D03*
X182433500Y-75144000D03*
%TD*%
D13*
%TO.P,J1,2*%
%TO.N,GND*%
X181300000Y-37592000D03*
D14*
%TO.P,J1,1*%
%TO.N,+12V*%
X177800000Y-37592000D03*
%TD*%
D15*
%TO.P,J2,10*%
%TO.N,NRST*%
X80804000Y-57532000D03*
%TO.P,J2,9*%
%TO.N,GND*%
X82804000Y-57532000D03*
%TO.P,J2,8*%
%TO.N,Net-(J2-Pad8)*%
X80804000Y-59532000D03*
%TO.P,J2,7*%
%TO.N,Net-(J2-Pad7)*%
X82804000Y-59532000D03*
%TO.P,J2,6*%
%TO.N,SWD*%
X80804000Y-61532000D03*
%TO.P,J2,5*%
%TO.N,GND*%
X82804000Y-61532000D03*
%TO.P,J2,4*%
%TO.N,SWCLK*%
X80804000Y-63532000D03*
%TO.P,J2,3*%
%TO.N,GND*%
X82804000Y-63532000D03*
%TO.P,J2,2*%
%TO.N,SWDIO*%
X80804000Y-65532000D03*
D16*
%TO.P,J2,1*%
%TO.N,+3V3*%
X82804000Y-65532000D03*
%TD*%
D17*
%TO.P,F1,1*%
%TO.N,Net-(F1-Pad1)*%
X115570000Y-44958000D03*
%TO.P,F1,2*%
%TO.N,+12V*%
X116770000Y-39858000D03*
%TD*%
D18*
%TO.P,J3,4*%
%TO.N,GND*%
X111760000Y-62230000D03*
%TO.P,J3,3*%
%TO.N,I2C1_SDA*%
X114300000Y-62230000D03*
%TO.P,J3,2*%
%TO.N,I2C1_SCL*%
X116840000Y-62230000D03*
D19*
%TO.P,J3,1*%
%TO.N,+3V3*%
X119380000Y-62230000D03*
%TD*%
%TO.P,J4,1*%
%TO.N,+3V3*%
X115824000Y-95504000D03*
D18*
%TO.P,J4,2*%
%TO.N,UART3_Tx*%
X118364000Y-95504000D03*
%TO.P,J4,3*%
%TO.N,UART3_Rx*%
X120904000Y-95504000D03*
%TO.P,J4,4*%
%TO.N,GND*%
X123444000Y-95504000D03*
%TD*%
D20*
%TO.P,R1,1*%
%TO.N,+3V3*%
X132080000Y-107696000D03*
D21*
%TO.P,R1,2*%
%TO.N,I2C1_SCL*%
X132080000Y-94996000D03*
%TD*%
%TO.P,R2,2*%
%TO.N,I2C1_SDA*%
X107696000Y-95758000D03*
D20*
%TO.P,R2,1*%
%TO.N,+3V3*%
X107696000Y-108458000D03*
%TD*%
%TO.P,R3,1*%
%TO.N,+3.3VA*%
X147066000Y-46990000D03*
D21*
%TO.P,R3,2*%
%TO.N,Buck_FB*%
X147066000Y-59690000D03*
%TD*%
%TO.P,R4,2*%
%TO.N,Net-(R4-Pad2)*%
X180340000Y-47244000D03*
D20*
%TO.P,R4,1*%
%TO.N,Buck_FB*%
X180340000Y-59944000D03*
%TD*%
%TO.P,R5,1*%
%TO.N,Net-(R4-Pad2)*%
X172466000Y-47498000D03*
D21*
%TO.P,R5,2*%
%TO.N,GND*%
X172466000Y-60198000D03*
%TD*%
D20*
%TO.P,R6,1*%
%TO.N,Buck_IN*%
X164592000Y-59944000D03*
D21*
%TO.P,R6,2*%
%TO.N,Buck_EN*%
X164592000Y-47244000D03*
%TD*%
%TO.P,R7,2*%
%TO.N,GND*%
X155448000Y-59944000D03*
D20*
%TO.P,R7,1*%
%TO.N,Buck_EN*%
X155448000Y-47244000D03*
%TD*%
D22*
%TO.N,Net-(C1-Pad1)*%
X125730000Y-103886000D03*
X146050000Y-82550000D03*
%TO.N,GND*%
X85344000Y-57404000D03*
X84582000Y-63754000D03*
X99568000Y-71120000D03*
X98806000Y-74676000D03*
X161036000Y-87630000D03*
X150622000Y-65532000D03*
X169164000Y-72644000D03*
X172466000Y-60198000D03*
X173228000Y-85598000D03*
X173482000Y-90170000D03*
X148082000Y-103886000D03*
X93218000Y-60198000D03*
X129794000Y-59690000D03*
X155448000Y-59944000D03*
X105918000Y-83566000D03*
X147320000Y-97790000D03*
X158242000Y-95504000D03*
X127762000Y-91694000D03*
X113284000Y-89154000D03*
X124460000Y-88646000D03*
X97282000Y-73406000D03*
X97536000Y-70358000D03*
X113284000Y-73660000D03*
X112268000Y-70649000D03*
X97282000Y-80010000D03*
X98806000Y-76708000D03*
X111506000Y-92202000D03*
X113284000Y-92202000D03*
X162814000Y-88392000D03*
X166116000Y-91440000D03*
%TO.N,+3V3*%
X135890000Y-89662000D03*
X157734000Y-70866000D03*
X159258000Y-103886000D03*
X129286000Y-107696000D03*
X113792000Y-94742000D03*
X107696000Y-108458000D03*
X108204000Y-63500000D03*
X126492000Y-50546000D03*
X122682000Y-61976000D03*
X110490000Y-88138000D03*
X114046000Y-88138000D03*
X109728000Y-73660000D03*
X108966000Y-71374000D03*
X83312000Y-68326000D03*
X82804000Y-76708000D03*
X127000000Y-85090000D03*
X107950000Y-53340000D03*
X120396000Y-52070000D03*
X122936000Y-90932000D03*
X164592000Y-86868000D03*
X162052000Y-77470000D03*
X130810000Y-69342000D03*
X125730000Y-84836000D03*
%TO.N,Net-(C7-Pad1)*%
X129540000Y-70104000D03*
X139700000Y-76454000D03*
X134620000Y-88138000D03*
X144272000Y-107950000D03*
X148082000Y-107696000D03*
X147320000Y-93218000D03*
%TO.N,+3.3VA*%
X147066000Y-44958000D03*
X99314000Y-81788000D03*
X109728000Y-81788000D03*
X110236000Y-83312000D03*
X139954000Y-44958000D03*
%TO.N,HSE_IN*%
X106680000Y-71120000D03*
X107442000Y-76962000D03*
%TO.N,HSE_OUT*%
X112072153Y-75125847D03*
X108204000Y-75184000D03*
X106426000Y-75946000D03*
X105918000Y-76708000D03*
%TO.N,Buck_SW*%
X140462000Y-67310000D03*
X144272000Y-74930000D03*
X152908000Y-81026000D03*
X142240000Y-81026000D03*
%TO.N,Buck_IN*%
X133858000Y-57912000D03*
X139700000Y-58420000D03*
X171196000Y-67564000D03*
X154178000Y-66040000D03*
X155194000Y-62738000D03*
%TO.N,Net-(F1-Pad1)*%
X183896000Y-63500000D03*
X175768000Y-81788000D03*
%TO.N,SWDIO*%
X98806000Y-67310000D03*
X127508000Y-71882000D03*
%TO.N,SWD*%
X123444000Y-68580000D03*
X122428000Y-73152000D03*
%TO.N,NRST*%
X88138000Y-60960000D03*
X88138000Y-72898000D03*
X99314000Y-80010000D03*
X110689108Y-80064892D03*
%TO.N,I2C1_SDA*%
X113030000Y-66802000D03*
X114808000Y-72861000D03*
%TO.N,I2C1_SCL*%
X114300000Y-68580000D03*
X119126000Y-72861000D03*
%TO.N,Buck_FB*%
X184404000Y-62230000D03*
%TO.N,BOOT0*%
X115987444Y-72999020D03*
X135382000Y-59944000D03*
%TO.N,USB_D-*%
X148590000Y-69613000D03*
X175514000Y-69613000D03*
%TO.N,USB_D+*%
X148590000Y-68563000D03*
X175514000Y-68563000D03*
%TD*%
D23*
%TO.N,Net-(C1-Pad1)*%
X125730000Y-105213002D02*
X129990998Y-109474000D01*
X125730000Y-103886000D02*
X125730000Y-105213002D01*
X129990998Y-109474000D02*
X136652000Y-109474000D01*
X136652000Y-109474000D02*
X146812000Y-109474000D01*
X146812000Y-109474000D02*
X146812000Y-100076000D01*
X146812000Y-100076000D02*
X144780000Y-98044000D01*
X144780000Y-98044000D02*
X144780000Y-92964000D01*
X144780000Y-92964000D02*
X146050000Y-91694000D01*
X146050000Y-91694000D02*
X146050000Y-82550000D01*
%TO.N,GND*%
X83804001Y-58532001D02*
X83804001Y-62531999D01*
X83804001Y-62531999D02*
X82804000Y-63532000D01*
X82804000Y-57532000D02*
X83804001Y-58532001D01*
X83479001Y-62206999D02*
X83804001Y-62531999D01*
X82804000Y-61532000D02*
X83479001Y-62206999D01*
X147320000Y-97790000D02*
X149606000Y-95504000D01*
X149606000Y-95504000D02*
X158242000Y-95504000D01*
X123444000Y-95504000D02*
X123952000Y-95504000D01*
X123952000Y-95504000D02*
X127762000Y-91694000D01*
X113284000Y-89154000D02*
X123952000Y-89154000D01*
X123952000Y-89154000D02*
X124460000Y-88646000D01*
X97282000Y-73406000D02*
X97282000Y-70612000D01*
X97282000Y-70612000D02*
X97536000Y-70358000D01*
X113284000Y-73660000D02*
X112268000Y-72644000D01*
X112268000Y-72644000D02*
X112268000Y-70649000D01*
X97282000Y-80010000D02*
X97282000Y-78232000D01*
X97282000Y-78232000D02*
X98806000Y-76708000D01*
X111506000Y-92202000D02*
X113284000Y-92202000D01*
X181300000Y-37592000D02*
X184150000Y-37592000D01*
X184150000Y-37592000D02*
X184404000Y-37846000D01*
X183170999Y-59370003D02*
X179549002Y-62992000D01*
X184404000Y-37846000D02*
X183170999Y-39079001D01*
X183170999Y-39079001D02*
X183170999Y-59370003D01*
X175260000Y-62992000D02*
X172466000Y-60198000D01*
X179549002Y-62992000D02*
X175260000Y-62992000D01*
X162814000Y-88392000D02*
X161290000Y-89916000D01*
X161290000Y-89916000D02*
X161290000Y-90932000D01*
X161290000Y-90932000D02*
X161290000Y-91186000D01*
X161290000Y-91186000D02*
X161544000Y-91440000D01*
X161544000Y-91440000D02*
X166116000Y-91440000D01*
%TO.N,+3V3*%
X110490000Y-88138000D02*
X114046000Y-88138000D01*
X109728000Y-73660000D02*
X108966000Y-72898000D01*
X108966000Y-72898000D02*
X108966000Y-71374000D01*
X83312000Y-68326000D02*
X82804000Y-68834000D01*
X82804000Y-68834000D02*
X82804000Y-76708000D01*
X107950000Y-53340000D02*
X107950000Y-49022000D01*
X107950000Y-49022000D02*
X108712000Y-48260000D01*
X108712000Y-48260000D02*
X109982000Y-48260000D01*
X109982000Y-48260000D02*
X113792000Y-52070000D01*
X113792000Y-52070000D02*
X120396000Y-52070000D01*
X122936000Y-90932000D02*
X127000000Y-90932000D01*
X129089990Y-88842010D02*
X129089990Y-84649600D01*
X127000000Y-90932000D02*
X129089990Y-88842010D01*
X129089990Y-84649600D02*
X128768390Y-84328000D01*
X127762000Y-84328000D02*
X127000000Y-85090000D01*
X128768390Y-84328000D02*
X127762000Y-84328000D01*
X164592000Y-86868000D02*
X164592000Y-80010000D01*
X164592000Y-80010000D02*
X162052000Y-77470000D01*
X133386999Y-77179001D02*
X125730000Y-84836000D01*
X144816999Y-77179001D02*
X133386999Y-77179001D01*
X145796000Y-76200000D02*
X144816999Y-77179001D01*
X134874000Y-69342000D02*
X137668000Y-66548000D01*
X141732000Y-66548000D02*
X145796000Y-70612000D01*
X130810000Y-69342000D02*
X134874000Y-69342000D01*
X137668000Y-66548000D02*
X141732000Y-66548000D01*
X145796000Y-70612000D02*
X145796000Y-76200000D01*
X127000000Y-85598000D02*
X127000000Y-85090000D01*
X126746000Y-85852000D02*
X127000000Y-85598000D01*
X125984000Y-85852000D02*
X126746000Y-85852000D01*
X125730000Y-84836000D02*
X125730000Y-85598000D01*
X125730000Y-85598000D02*
X125984000Y-85852000D01*
%TO.N,Net-(C7-Pad1)*%
X129540000Y-70104000D02*
X132080000Y-70104000D01*
X132080000Y-70104000D02*
X133096000Y-71120000D01*
X133096000Y-71120000D02*
X135128000Y-71120000D01*
X135128000Y-71120000D02*
X139700000Y-75692000D01*
X139700000Y-75692000D02*
X139700000Y-76454000D01*
X134620000Y-88138000D02*
X134620000Y-97790000D01*
X134620000Y-97790000D02*
X139700000Y-102870000D01*
X139700000Y-102870000D02*
X139700000Y-104902000D01*
X139700000Y-104902000D02*
X142748000Y-107950000D01*
X142748000Y-107950000D02*
X144272000Y-107950000D01*
X148082000Y-107696000D02*
X147320000Y-106934000D01*
X146594999Y-93943001D02*
X147320000Y-93218000D01*
X147320000Y-98863002D02*
X146594999Y-98138001D01*
X147320000Y-106934000D02*
X147320000Y-98863002D01*
X146594999Y-98138001D02*
X146594999Y-93943001D01*
%TO.N,+3.3VA*%
X99314000Y-81788000D02*
X109728000Y-81788000D01*
X109764999Y-83783001D02*
X109764999Y-100874999D01*
X110236000Y-83312000D02*
X109764999Y-83783001D01*
X109764999Y-100874999D02*
X111252000Y-102362000D01*
X111252000Y-102362000D02*
X128270000Y-102362000D01*
X128270000Y-102362000D02*
X129540000Y-101092000D01*
X129540000Y-101092000D02*
X129540000Y-84836000D01*
X129540000Y-84836000D02*
X136652000Y-77724000D01*
X136652000Y-77724000D02*
X146304000Y-77724000D01*
X146304000Y-77724000D02*
X146558000Y-77470000D01*
X146558000Y-77470000D02*
X146558000Y-62484000D01*
X146558000Y-62484000D02*
X138684000Y-54610000D01*
X138684000Y-54610000D02*
X138684000Y-46228000D01*
X138684000Y-46228000D02*
X139954000Y-44958000D01*
%TO.N,HSE_IN*%
X106680000Y-71120000D02*
X107442000Y-71882000D01*
X107442000Y-71882000D02*
X107442000Y-76962000D01*
%TO.N,HSE_OUT*%
X112072153Y-75125847D02*
X110548153Y-75125847D01*
X110548153Y-75125847D02*
X108262153Y-75125847D01*
X108262153Y-75125847D02*
X108204000Y-75184000D01*
X106426000Y-75946000D02*
X106426000Y-76200000D01*
X106426000Y-76200000D02*
X105918000Y-76708000D01*
%TO.N,Buck_SW*%
X140462000Y-67310000D02*
X139446000Y-68326000D01*
X139446000Y-68326000D02*
X139446000Y-72898000D01*
X139446000Y-72898000D02*
X141478000Y-74930000D01*
X141478000Y-74930000D02*
X144272000Y-74930000D01*
X152908000Y-81026000D02*
X142240000Y-81026000D01*
%TO.N,Buck_IN*%
X133858000Y-57912000D02*
X134366000Y-58420000D01*
X134366000Y-58420000D02*
X139700000Y-58420000D01*
X171196000Y-67564000D02*
X154432000Y-67564000D01*
X154432000Y-67564000D02*
X154178000Y-67310000D01*
X154178000Y-67310000D02*
X154178000Y-66040000D01*
X155194000Y-62738000D02*
X163576000Y-62738000D01*
X164592000Y-61722000D02*
X164592000Y-59944000D01*
X163576000Y-62738000D02*
X164592000Y-61722000D01*
%TO.N,Net-(F1-Pad1)*%
X177546000Y-80010000D02*
X175768000Y-81788000D01*
X183896000Y-75723339D02*
X183134000Y-76485339D01*
X183896000Y-63500000D02*
X183896000Y-75723339D01*
X183134000Y-76485339D02*
X183134000Y-79248000D01*
X183134000Y-79248000D02*
X182372000Y-80010000D01*
X182372000Y-80010000D02*
X177546000Y-80010000D01*
%TO.N,+12V*%
X116770000Y-39858000D02*
X116770000Y-37154000D01*
X116770000Y-37154000D02*
X119634000Y-34290000D01*
X174244000Y-34290000D02*
X177546000Y-37592000D01*
X119634000Y-34290000D02*
X174244000Y-34290000D01*
%TO.N,SWDIO*%
X98806000Y-67310000D02*
X104902000Y-67310000D01*
X105467002Y-67310000D02*
X109220000Y-63557002D01*
X104902000Y-67310000D02*
X105467002Y-67310000D01*
X109220000Y-63557002D02*
X109220000Y-62937072D01*
X109220000Y-62937072D02*
X109220000Y-54356000D01*
X109220000Y-54356000D02*
X110236000Y-53340000D01*
X110236000Y-53340000D02*
X119888000Y-53340000D01*
X119888000Y-53340000D02*
X127508000Y-60960000D01*
X127508000Y-60960000D02*
X127508000Y-71882000D01*
%TO.N,SWD*%
X123444000Y-68580000D02*
X122428000Y-69596000D01*
X122428000Y-69596000D02*
X122428000Y-73152000D01*
%TO.N,NRST*%
X88138000Y-60960000D02*
X88138000Y-72898000D01*
X99314000Y-80010000D02*
X100330000Y-81026000D01*
X110671215Y-80046999D02*
X110689108Y-80064892D01*
X100330000Y-81026000D02*
X101309001Y-80046999D01*
X101309001Y-80046999D02*
X110671215Y-80046999D01*
%TO.N,I2C1_SDA*%
X113030000Y-66802000D02*
X113030000Y-71083000D01*
X113030000Y-71083000D02*
X114808000Y-72861000D01*
%TO.N,I2C1_SCL*%
X114300000Y-68580000D02*
X118581000Y-72861000D01*
X118581000Y-72861000D02*
X119126000Y-72861000D01*
%TO.N,Buck_FB*%
X147066000Y-59690000D02*
X151130000Y-63754000D01*
X182568998Y-63754000D02*
X183388000Y-62934998D01*
X151130000Y-63754000D02*
X182568998Y-63754000D01*
X183859001Y-62774999D02*
X184404000Y-62230000D01*
X183388000Y-62934998D02*
X183547999Y-62774999D01*
X183547999Y-62774999D02*
X183859001Y-62774999D01*
%TO.N,Net-(R4-Pad2)*%
X180086000Y-47498000D02*
X180340000Y-47244000D01*
X172466000Y-47498000D02*
X180086000Y-47498000D01*
%TO.N,Buck_EN*%
X155448000Y-47244000D02*
X164592000Y-47244000D01*
%TO.N,BOOT0*%
X131064000Y-59944000D02*
X135382000Y-59944000D01*
X124714000Y-66802000D02*
X125476000Y-67564000D01*
X115004998Y-66802000D02*
X124714000Y-66802000D01*
X128524000Y-75946000D02*
X128524000Y-62484000D01*
X113574999Y-68231999D02*
X115004998Y-66802000D01*
X128524000Y-62484000D02*
X131064000Y-59944000D01*
X115987444Y-72999020D02*
X113574999Y-70586575D01*
X113574999Y-70586575D02*
X113574999Y-68231999D01*
X125476000Y-67564000D02*
X125476000Y-74168000D01*
X125476000Y-74168000D02*
X127508000Y-76200000D01*
X127508000Y-76200000D02*
X128270000Y-76200000D01*
X128270000Y-76200000D02*
X128524000Y-75946000D01*
D24*
%TO.N,USB_D-*%
X175214000Y-69313000D02*
X175514000Y-69613000D01*
X148590000Y-69613000D02*
X148890000Y-69313000D01*
X148890000Y-69313000D02*
X175214000Y-69313000D01*
%TO.N,USB_D+*%
X148590000Y-68563000D02*
X148890000Y-68863000D01*
X175214000Y-68863000D02*
X175514000Y-68563000D01*
X148890000Y-68863000D02*
X175214000Y-68863000D01*
%TD*%
M02*
