%TF.GenerationSoftware,KiCad,Pcbnew,(5.1.6)-1*%
%TF.CreationDate,2021-02-28T15:35:06+06:00*%
%TF.ProjectId,STM32MCU + Buck Converter,53544d33-324d-4435-9520-2b204275636b,rev?*%
%TF.SameCoordinates,Original*%
%TF.FileFunction,Paste,Top*%
%TF.FilePolarity,Positive*%
%FSLAX46Y46*%
G04 Gerber Fmt 4.6, Leading zero omitted, Abs format (unit mm)*
G04 Created by KiCad (PCBNEW (5.1.6)-1) date 2021-02-28 15:35:06*
%MOMM*%
%LPD*%
G01*
G04 APERTURE LIST*
%ADD10R,1.900000X1.500000*%
%ADD11R,1.350000X0.400000*%
%ADD12R,0.800000X1.000000*%
%ADD13R,2.200000X1.200000*%
%ADD14R,3.050000X2.750000*%
%ADD15R,0.700000X1.500000*%
%ADD16R,1.000000X0.800000*%
%ADD17R,1.060000X0.650000*%
%ADD18R,1.400000X1.800000*%
G04 APERTURE END LIST*
D10*
%TO.C,J5*%
X185133500Y-73644000D03*
D11*
X182433500Y-72644000D03*
X182433500Y-71994000D03*
X182433500Y-71344000D03*
X182433500Y-73944000D03*
X182433500Y-73294000D03*
D10*
X185133500Y-71644000D03*
%TD*%
%TO.C,U1*%
G36*
G01*
X113956000Y-75035000D02*
X113956000Y-73635000D01*
G75*
G02*
X114031000Y-73560000I75000J0D01*
G01*
X114181000Y-73560000D01*
G75*
G02*
X114256000Y-73635000I0J-75000D01*
G01*
X114256000Y-75035000D01*
G75*
G02*
X114181000Y-75110000I-75000J0D01*
G01*
X114031000Y-75110000D01*
G75*
G02*
X113956000Y-75035000I0J75000D01*
G01*
G37*
G36*
G01*
X114456000Y-75035000D02*
X114456000Y-73635000D01*
G75*
G02*
X114531000Y-73560000I75000J0D01*
G01*
X114681000Y-73560000D01*
G75*
G02*
X114756000Y-73635000I0J-75000D01*
G01*
X114756000Y-75035000D01*
G75*
G02*
X114681000Y-75110000I-75000J0D01*
G01*
X114531000Y-75110000D01*
G75*
G02*
X114456000Y-75035000I0J75000D01*
G01*
G37*
G36*
G01*
X114956000Y-75035000D02*
X114956000Y-73635000D01*
G75*
G02*
X115031000Y-73560000I75000J0D01*
G01*
X115181000Y-73560000D01*
G75*
G02*
X115256000Y-73635000I0J-75000D01*
G01*
X115256000Y-75035000D01*
G75*
G02*
X115181000Y-75110000I-75000J0D01*
G01*
X115031000Y-75110000D01*
G75*
G02*
X114956000Y-75035000I0J75000D01*
G01*
G37*
G36*
G01*
X115456000Y-75035000D02*
X115456000Y-73635000D01*
G75*
G02*
X115531000Y-73560000I75000J0D01*
G01*
X115681000Y-73560000D01*
G75*
G02*
X115756000Y-73635000I0J-75000D01*
G01*
X115756000Y-75035000D01*
G75*
G02*
X115681000Y-75110000I-75000J0D01*
G01*
X115531000Y-75110000D01*
G75*
G02*
X115456000Y-75035000I0J75000D01*
G01*
G37*
G36*
G01*
X115956000Y-75035000D02*
X115956000Y-73635000D01*
G75*
G02*
X116031000Y-73560000I75000J0D01*
G01*
X116181000Y-73560000D01*
G75*
G02*
X116256000Y-73635000I0J-75000D01*
G01*
X116256000Y-75035000D01*
G75*
G02*
X116181000Y-75110000I-75000J0D01*
G01*
X116031000Y-75110000D01*
G75*
G02*
X115956000Y-75035000I0J75000D01*
G01*
G37*
G36*
G01*
X116456000Y-75035000D02*
X116456000Y-73635000D01*
G75*
G02*
X116531000Y-73560000I75000J0D01*
G01*
X116681000Y-73560000D01*
G75*
G02*
X116756000Y-73635000I0J-75000D01*
G01*
X116756000Y-75035000D01*
G75*
G02*
X116681000Y-75110000I-75000J0D01*
G01*
X116531000Y-75110000D01*
G75*
G02*
X116456000Y-75035000I0J75000D01*
G01*
G37*
G36*
G01*
X116956000Y-75035000D02*
X116956000Y-73635000D01*
G75*
G02*
X117031000Y-73560000I75000J0D01*
G01*
X117181000Y-73560000D01*
G75*
G02*
X117256000Y-73635000I0J-75000D01*
G01*
X117256000Y-75035000D01*
G75*
G02*
X117181000Y-75110000I-75000J0D01*
G01*
X117031000Y-75110000D01*
G75*
G02*
X116956000Y-75035000I0J75000D01*
G01*
G37*
G36*
G01*
X117456000Y-75035000D02*
X117456000Y-73635000D01*
G75*
G02*
X117531000Y-73560000I75000J0D01*
G01*
X117681000Y-73560000D01*
G75*
G02*
X117756000Y-73635000I0J-75000D01*
G01*
X117756000Y-75035000D01*
G75*
G02*
X117681000Y-75110000I-75000J0D01*
G01*
X117531000Y-75110000D01*
G75*
G02*
X117456000Y-75035000I0J75000D01*
G01*
G37*
G36*
G01*
X117956000Y-75035000D02*
X117956000Y-73635000D01*
G75*
G02*
X118031000Y-73560000I75000J0D01*
G01*
X118181000Y-73560000D01*
G75*
G02*
X118256000Y-73635000I0J-75000D01*
G01*
X118256000Y-75035000D01*
G75*
G02*
X118181000Y-75110000I-75000J0D01*
G01*
X118031000Y-75110000D01*
G75*
G02*
X117956000Y-75035000I0J75000D01*
G01*
G37*
G36*
G01*
X118456000Y-75035000D02*
X118456000Y-73635000D01*
G75*
G02*
X118531000Y-73560000I75000J0D01*
G01*
X118681000Y-73560000D01*
G75*
G02*
X118756000Y-73635000I0J-75000D01*
G01*
X118756000Y-75035000D01*
G75*
G02*
X118681000Y-75110000I-75000J0D01*
G01*
X118531000Y-75110000D01*
G75*
G02*
X118456000Y-75035000I0J75000D01*
G01*
G37*
G36*
G01*
X118956000Y-75035000D02*
X118956000Y-73635000D01*
G75*
G02*
X119031000Y-73560000I75000J0D01*
G01*
X119181000Y-73560000D01*
G75*
G02*
X119256000Y-73635000I0J-75000D01*
G01*
X119256000Y-75035000D01*
G75*
G02*
X119181000Y-75110000I-75000J0D01*
G01*
X119031000Y-75110000D01*
G75*
G02*
X118956000Y-75035000I0J75000D01*
G01*
G37*
G36*
G01*
X119456000Y-75035000D02*
X119456000Y-73635000D01*
G75*
G02*
X119531000Y-73560000I75000J0D01*
G01*
X119681000Y-73560000D01*
G75*
G02*
X119756000Y-73635000I0J-75000D01*
G01*
X119756000Y-75035000D01*
G75*
G02*
X119681000Y-75110000I-75000J0D01*
G01*
X119531000Y-75110000D01*
G75*
G02*
X119456000Y-75035000I0J75000D01*
G01*
G37*
G36*
G01*
X119956000Y-75035000D02*
X119956000Y-73635000D01*
G75*
G02*
X120031000Y-73560000I75000J0D01*
G01*
X120181000Y-73560000D01*
G75*
G02*
X120256000Y-73635000I0J-75000D01*
G01*
X120256000Y-75035000D01*
G75*
G02*
X120181000Y-75110000I-75000J0D01*
G01*
X120031000Y-75110000D01*
G75*
G02*
X119956000Y-75035000I0J75000D01*
G01*
G37*
G36*
G01*
X120456000Y-75035000D02*
X120456000Y-73635000D01*
G75*
G02*
X120531000Y-73560000I75000J0D01*
G01*
X120681000Y-73560000D01*
G75*
G02*
X120756000Y-73635000I0J-75000D01*
G01*
X120756000Y-75035000D01*
G75*
G02*
X120681000Y-75110000I-75000J0D01*
G01*
X120531000Y-75110000D01*
G75*
G02*
X120456000Y-75035000I0J75000D01*
G01*
G37*
G36*
G01*
X120956000Y-75035000D02*
X120956000Y-73635000D01*
G75*
G02*
X121031000Y-73560000I75000J0D01*
G01*
X121181000Y-73560000D01*
G75*
G02*
X121256000Y-73635000I0J-75000D01*
G01*
X121256000Y-75035000D01*
G75*
G02*
X121181000Y-75110000I-75000J0D01*
G01*
X121031000Y-75110000D01*
G75*
G02*
X120956000Y-75035000I0J75000D01*
G01*
G37*
G36*
G01*
X121456000Y-75035000D02*
X121456000Y-73635000D01*
G75*
G02*
X121531000Y-73560000I75000J0D01*
G01*
X121681000Y-73560000D01*
G75*
G02*
X121756000Y-73635000I0J-75000D01*
G01*
X121756000Y-75035000D01*
G75*
G02*
X121681000Y-75110000I-75000J0D01*
G01*
X121531000Y-75110000D01*
G75*
G02*
X121456000Y-75035000I0J75000D01*
G01*
G37*
G36*
G01*
X122756000Y-76335000D02*
X122756000Y-76185000D01*
G75*
G02*
X122831000Y-76110000I75000J0D01*
G01*
X124231000Y-76110000D01*
G75*
G02*
X124306000Y-76185000I0J-75000D01*
G01*
X124306000Y-76335000D01*
G75*
G02*
X124231000Y-76410000I-75000J0D01*
G01*
X122831000Y-76410000D01*
G75*
G02*
X122756000Y-76335000I0J75000D01*
G01*
G37*
G36*
G01*
X122756000Y-76835000D02*
X122756000Y-76685000D01*
G75*
G02*
X122831000Y-76610000I75000J0D01*
G01*
X124231000Y-76610000D01*
G75*
G02*
X124306000Y-76685000I0J-75000D01*
G01*
X124306000Y-76835000D01*
G75*
G02*
X124231000Y-76910000I-75000J0D01*
G01*
X122831000Y-76910000D01*
G75*
G02*
X122756000Y-76835000I0J75000D01*
G01*
G37*
G36*
G01*
X122756000Y-77335000D02*
X122756000Y-77185000D01*
G75*
G02*
X122831000Y-77110000I75000J0D01*
G01*
X124231000Y-77110000D01*
G75*
G02*
X124306000Y-77185000I0J-75000D01*
G01*
X124306000Y-77335000D01*
G75*
G02*
X124231000Y-77410000I-75000J0D01*
G01*
X122831000Y-77410000D01*
G75*
G02*
X122756000Y-77335000I0J75000D01*
G01*
G37*
G36*
G01*
X122756000Y-77835000D02*
X122756000Y-77685000D01*
G75*
G02*
X122831000Y-77610000I75000J0D01*
G01*
X124231000Y-77610000D01*
G75*
G02*
X124306000Y-77685000I0J-75000D01*
G01*
X124306000Y-77835000D01*
G75*
G02*
X124231000Y-77910000I-75000J0D01*
G01*
X122831000Y-77910000D01*
G75*
G02*
X122756000Y-77835000I0J75000D01*
G01*
G37*
G36*
G01*
X122756000Y-78335000D02*
X122756000Y-78185000D01*
G75*
G02*
X122831000Y-78110000I75000J0D01*
G01*
X124231000Y-78110000D01*
G75*
G02*
X124306000Y-78185000I0J-75000D01*
G01*
X124306000Y-78335000D01*
G75*
G02*
X124231000Y-78410000I-75000J0D01*
G01*
X122831000Y-78410000D01*
G75*
G02*
X122756000Y-78335000I0J75000D01*
G01*
G37*
G36*
G01*
X122756000Y-78835000D02*
X122756000Y-78685000D01*
G75*
G02*
X122831000Y-78610000I75000J0D01*
G01*
X124231000Y-78610000D01*
G75*
G02*
X124306000Y-78685000I0J-75000D01*
G01*
X124306000Y-78835000D01*
G75*
G02*
X124231000Y-78910000I-75000J0D01*
G01*
X122831000Y-78910000D01*
G75*
G02*
X122756000Y-78835000I0J75000D01*
G01*
G37*
G36*
G01*
X122756000Y-79335000D02*
X122756000Y-79185000D01*
G75*
G02*
X122831000Y-79110000I75000J0D01*
G01*
X124231000Y-79110000D01*
G75*
G02*
X124306000Y-79185000I0J-75000D01*
G01*
X124306000Y-79335000D01*
G75*
G02*
X124231000Y-79410000I-75000J0D01*
G01*
X122831000Y-79410000D01*
G75*
G02*
X122756000Y-79335000I0J75000D01*
G01*
G37*
G36*
G01*
X122756000Y-79835000D02*
X122756000Y-79685000D01*
G75*
G02*
X122831000Y-79610000I75000J0D01*
G01*
X124231000Y-79610000D01*
G75*
G02*
X124306000Y-79685000I0J-75000D01*
G01*
X124306000Y-79835000D01*
G75*
G02*
X124231000Y-79910000I-75000J0D01*
G01*
X122831000Y-79910000D01*
G75*
G02*
X122756000Y-79835000I0J75000D01*
G01*
G37*
G36*
G01*
X122756000Y-80335000D02*
X122756000Y-80185000D01*
G75*
G02*
X122831000Y-80110000I75000J0D01*
G01*
X124231000Y-80110000D01*
G75*
G02*
X124306000Y-80185000I0J-75000D01*
G01*
X124306000Y-80335000D01*
G75*
G02*
X124231000Y-80410000I-75000J0D01*
G01*
X122831000Y-80410000D01*
G75*
G02*
X122756000Y-80335000I0J75000D01*
G01*
G37*
G36*
G01*
X122756000Y-80835000D02*
X122756000Y-80685000D01*
G75*
G02*
X122831000Y-80610000I75000J0D01*
G01*
X124231000Y-80610000D01*
G75*
G02*
X124306000Y-80685000I0J-75000D01*
G01*
X124306000Y-80835000D01*
G75*
G02*
X124231000Y-80910000I-75000J0D01*
G01*
X122831000Y-80910000D01*
G75*
G02*
X122756000Y-80835000I0J75000D01*
G01*
G37*
G36*
G01*
X122756000Y-81335000D02*
X122756000Y-81185000D01*
G75*
G02*
X122831000Y-81110000I75000J0D01*
G01*
X124231000Y-81110000D01*
G75*
G02*
X124306000Y-81185000I0J-75000D01*
G01*
X124306000Y-81335000D01*
G75*
G02*
X124231000Y-81410000I-75000J0D01*
G01*
X122831000Y-81410000D01*
G75*
G02*
X122756000Y-81335000I0J75000D01*
G01*
G37*
G36*
G01*
X122756000Y-81835000D02*
X122756000Y-81685000D01*
G75*
G02*
X122831000Y-81610000I75000J0D01*
G01*
X124231000Y-81610000D01*
G75*
G02*
X124306000Y-81685000I0J-75000D01*
G01*
X124306000Y-81835000D01*
G75*
G02*
X124231000Y-81910000I-75000J0D01*
G01*
X122831000Y-81910000D01*
G75*
G02*
X122756000Y-81835000I0J75000D01*
G01*
G37*
G36*
G01*
X122756000Y-82335000D02*
X122756000Y-82185000D01*
G75*
G02*
X122831000Y-82110000I75000J0D01*
G01*
X124231000Y-82110000D01*
G75*
G02*
X124306000Y-82185000I0J-75000D01*
G01*
X124306000Y-82335000D01*
G75*
G02*
X124231000Y-82410000I-75000J0D01*
G01*
X122831000Y-82410000D01*
G75*
G02*
X122756000Y-82335000I0J75000D01*
G01*
G37*
G36*
G01*
X122756000Y-82835000D02*
X122756000Y-82685000D01*
G75*
G02*
X122831000Y-82610000I75000J0D01*
G01*
X124231000Y-82610000D01*
G75*
G02*
X124306000Y-82685000I0J-75000D01*
G01*
X124306000Y-82835000D01*
G75*
G02*
X124231000Y-82910000I-75000J0D01*
G01*
X122831000Y-82910000D01*
G75*
G02*
X122756000Y-82835000I0J75000D01*
G01*
G37*
G36*
G01*
X122756000Y-83335000D02*
X122756000Y-83185000D01*
G75*
G02*
X122831000Y-83110000I75000J0D01*
G01*
X124231000Y-83110000D01*
G75*
G02*
X124306000Y-83185000I0J-75000D01*
G01*
X124306000Y-83335000D01*
G75*
G02*
X124231000Y-83410000I-75000J0D01*
G01*
X122831000Y-83410000D01*
G75*
G02*
X122756000Y-83335000I0J75000D01*
G01*
G37*
G36*
G01*
X122756000Y-83835000D02*
X122756000Y-83685000D01*
G75*
G02*
X122831000Y-83610000I75000J0D01*
G01*
X124231000Y-83610000D01*
G75*
G02*
X124306000Y-83685000I0J-75000D01*
G01*
X124306000Y-83835000D01*
G75*
G02*
X124231000Y-83910000I-75000J0D01*
G01*
X122831000Y-83910000D01*
G75*
G02*
X122756000Y-83835000I0J75000D01*
G01*
G37*
G36*
G01*
X121456000Y-86385000D02*
X121456000Y-84985000D01*
G75*
G02*
X121531000Y-84910000I75000J0D01*
G01*
X121681000Y-84910000D01*
G75*
G02*
X121756000Y-84985000I0J-75000D01*
G01*
X121756000Y-86385000D01*
G75*
G02*
X121681000Y-86460000I-75000J0D01*
G01*
X121531000Y-86460000D01*
G75*
G02*
X121456000Y-86385000I0J75000D01*
G01*
G37*
G36*
G01*
X120956000Y-86385000D02*
X120956000Y-84985000D01*
G75*
G02*
X121031000Y-84910000I75000J0D01*
G01*
X121181000Y-84910000D01*
G75*
G02*
X121256000Y-84985000I0J-75000D01*
G01*
X121256000Y-86385000D01*
G75*
G02*
X121181000Y-86460000I-75000J0D01*
G01*
X121031000Y-86460000D01*
G75*
G02*
X120956000Y-86385000I0J75000D01*
G01*
G37*
G36*
G01*
X120456000Y-86385000D02*
X120456000Y-84985000D01*
G75*
G02*
X120531000Y-84910000I75000J0D01*
G01*
X120681000Y-84910000D01*
G75*
G02*
X120756000Y-84985000I0J-75000D01*
G01*
X120756000Y-86385000D01*
G75*
G02*
X120681000Y-86460000I-75000J0D01*
G01*
X120531000Y-86460000D01*
G75*
G02*
X120456000Y-86385000I0J75000D01*
G01*
G37*
G36*
G01*
X119956000Y-86385000D02*
X119956000Y-84985000D01*
G75*
G02*
X120031000Y-84910000I75000J0D01*
G01*
X120181000Y-84910000D01*
G75*
G02*
X120256000Y-84985000I0J-75000D01*
G01*
X120256000Y-86385000D01*
G75*
G02*
X120181000Y-86460000I-75000J0D01*
G01*
X120031000Y-86460000D01*
G75*
G02*
X119956000Y-86385000I0J75000D01*
G01*
G37*
G36*
G01*
X119456000Y-86385000D02*
X119456000Y-84985000D01*
G75*
G02*
X119531000Y-84910000I75000J0D01*
G01*
X119681000Y-84910000D01*
G75*
G02*
X119756000Y-84985000I0J-75000D01*
G01*
X119756000Y-86385000D01*
G75*
G02*
X119681000Y-86460000I-75000J0D01*
G01*
X119531000Y-86460000D01*
G75*
G02*
X119456000Y-86385000I0J75000D01*
G01*
G37*
G36*
G01*
X118956000Y-86385000D02*
X118956000Y-84985000D01*
G75*
G02*
X119031000Y-84910000I75000J0D01*
G01*
X119181000Y-84910000D01*
G75*
G02*
X119256000Y-84985000I0J-75000D01*
G01*
X119256000Y-86385000D01*
G75*
G02*
X119181000Y-86460000I-75000J0D01*
G01*
X119031000Y-86460000D01*
G75*
G02*
X118956000Y-86385000I0J75000D01*
G01*
G37*
G36*
G01*
X118456000Y-86385000D02*
X118456000Y-84985000D01*
G75*
G02*
X118531000Y-84910000I75000J0D01*
G01*
X118681000Y-84910000D01*
G75*
G02*
X118756000Y-84985000I0J-75000D01*
G01*
X118756000Y-86385000D01*
G75*
G02*
X118681000Y-86460000I-75000J0D01*
G01*
X118531000Y-86460000D01*
G75*
G02*
X118456000Y-86385000I0J75000D01*
G01*
G37*
G36*
G01*
X117956000Y-86385000D02*
X117956000Y-84985000D01*
G75*
G02*
X118031000Y-84910000I75000J0D01*
G01*
X118181000Y-84910000D01*
G75*
G02*
X118256000Y-84985000I0J-75000D01*
G01*
X118256000Y-86385000D01*
G75*
G02*
X118181000Y-86460000I-75000J0D01*
G01*
X118031000Y-86460000D01*
G75*
G02*
X117956000Y-86385000I0J75000D01*
G01*
G37*
G36*
G01*
X117456000Y-86385000D02*
X117456000Y-84985000D01*
G75*
G02*
X117531000Y-84910000I75000J0D01*
G01*
X117681000Y-84910000D01*
G75*
G02*
X117756000Y-84985000I0J-75000D01*
G01*
X117756000Y-86385000D01*
G75*
G02*
X117681000Y-86460000I-75000J0D01*
G01*
X117531000Y-86460000D01*
G75*
G02*
X117456000Y-86385000I0J75000D01*
G01*
G37*
G36*
G01*
X116956000Y-86385000D02*
X116956000Y-84985000D01*
G75*
G02*
X117031000Y-84910000I75000J0D01*
G01*
X117181000Y-84910000D01*
G75*
G02*
X117256000Y-84985000I0J-75000D01*
G01*
X117256000Y-86385000D01*
G75*
G02*
X117181000Y-86460000I-75000J0D01*
G01*
X117031000Y-86460000D01*
G75*
G02*
X116956000Y-86385000I0J75000D01*
G01*
G37*
G36*
G01*
X116456000Y-86385000D02*
X116456000Y-84985000D01*
G75*
G02*
X116531000Y-84910000I75000J0D01*
G01*
X116681000Y-84910000D01*
G75*
G02*
X116756000Y-84985000I0J-75000D01*
G01*
X116756000Y-86385000D01*
G75*
G02*
X116681000Y-86460000I-75000J0D01*
G01*
X116531000Y-86460000D01*
G75*
G02*
X116456000Y-86385000I0J75000D01*
G01*
G37*
G36*
G01*
X115956000Y-86385000D02*
X115956000Y-84985000D01*
G75*
G02*
X116031000Y-84910000I75000J0D01*
G01*
X116181000Y-84910000D01*
G75*
G02*
X116256000Y-84985000I0J-75000D01*
G01*
X116256000Y-86385000D01*
G75*
G02*
X116181000Y-86460000I-75000J0D01*
G01*
X116031000Y-86460000D01*
G75*
G02*
X115956000Y-86385000I0J75000D01*
G01*
G37*
G36*
G01*
X115456000Y-86385000D02*
X115456000Y-84985000D01*
G75*
G02*
X115531000Y-84910000I75000J0D01*
G01*
X115681000Y-84910000D01*
G75*
G02*
X115756000Y-84985000I0J-75000D01*
G01*
X115756000Y-86385000D01*
G75*
G02*
X115681000Y-86460000I-75000J0D01*
G01*
X115531000Y-86460000D01*
G75*
G02*
X115456000Y-86385000I0J75000D01*
G01*
G37*
G36*
G01*
X114956000Y-86385000D02*
X114956000Y-84985000D01*
G75*
G02*
X115031000Y-84910000I75000J0D01*
G01*
X115181000Y-84910000D01*
G75*
G02*
X115256000Y-84985000I0J-75000D01*
G01*
X115256000Y-86385000D01*
G75*
G02*
X115181000Y-86460000I-75000J0D01*
G01*
X115031000Y-86460000D01*
G75*
G02*
X114956000Y-86385000I0J75000D01*
G01*
G37*
G36*
G01*
X114456000Y-86385000D02*
X114456000Y-84985000D01*
G75*
G02*
X114531000Y-84910000I75000J0D01*
G01*
X114681000Y-84910000D01*
G75*
G02*
X114756000Y-84985000I0J-75000D01*
G01*
X114756000Y-86385000D01*
G75*
G02*
X114681000Y-86460000I-75000J0D01*
G01*
X114531000Y-86460000D01*
G75*
G02*
X114456000Y-86385000I0J75000D01*
G01*
G37*
G36*
G01*
X113956000Y-86385000D02*
X113956000Y-84985000D01*
G75*
G02*
X114031000Y-84910000I75000J0D01*
G01*
X114181000Y-84910000D01*
G75*
G02*
X114256000Y-84985000I0J-75000D01*
G01*
X114256000Y-86385000D01*
G75*
G02*
X114181000Y-86460000I-75000J0D01*
G01*
X114031000Y-86460000D01*
G75*
G02*
X113956000Y-86385000I0J75000D01*
G01*
G37*
G36*
G01*
X111406000Y-83835000D02*
X111406000Y-83685000D01*
G75*
G02*
X111481000Y-83610000I75000J0D01*
G01*
X112881000Y-83610000D01*
G75*
G02*
X112956000Y-83685000I0J-75000D01*
G01*
X112956000Y-83835000D01*
G75*
G02*
X112881000Y-83910000I-75000J0D01*
G01*
X111481000Y-83910000D01*
G75*
G02*
X111406000Y-83835000I0J75000D01*
G01*
G37*
G36*
G01*
X111406000Y-83335000D02*
X111406000Y-83185000D01*
G75*
G02*
X111481000Y-83110000I75000J0D01*
G01*
X112881000Y-83110000D01*
G75*
G02*
X112956000Y-83185000I0J-75000D01*
G01*
X112956000Y-83335000D01*
G75*
G02*
X112881000Y-83410000I-75000J0D01*
G01*
X111481000Y-83410000D01*
G75*
G02*
X111406000Y-83335000I0J75000D01*
G01*
G37*
G36*
G01*
X111406000Y-82835000D02*
X111406000Y-82685000D01*
G75*
G02*
X111481000Y-82610000I75000J0D01*
G01*
X112881000Y-82610000D01*
G75*
G02*
X112956000Y-82685000I0J-75000D01*
G01*
X112956000Y-82835000D01*
G75*
G02*
X112881000Y-82910000I-75000J0D01*
G01*
X111481000Y-82910000D01*
G75*
G02*
X111406000Y-82835000I0J75000D01*
G01*
G37*
G36*
G01*
X111406000Y-82335000D02*
X111406000Y-82185000D01*
G75*
G02*
X111481000Y-82110000I75000J0D01*
G01*
X112881000Y-82110000D01*
G75*
G02*
X112956000Y-82185000I0J-75000D01*
G01*
X112956000Y-82335000D01*
G75*
G02*
X112881000Y-82410000I-75000J0D01*
G01*
X111481000Y-82410000D01*
G75*
G02*
X111406000Y-82335000I0J75000D01*
G01*
G37*
G36*
G01*
X111406000Y-81835000D02*
X111406000Y-81685000D01*
G75*
G02*
X111481000Y-81610000I75000J0D01*
G01*
X112881000Y-81610000D01*
G75*
G02*
X112956000Y-81685000I0J-75000D01*
G01*
X112956000Y-81835000D01*
G75*
G02*
X112881000Y-81910000I-75000J0D01*
G01*
X111481000Y-81910000D01*
G75*
G02*
X111406000Y-81835000I0J75000D01*
G01*
G37*
G36*
G01*
X111406000Y-81335000D02*
X111406000Y-81185000D01*
G75*
G02*
X111481000Y-81110000I75000J0D01*
G01*
X112881000Y-81110000D01*
G75*
G02*
X112956000Y-81185000I0J-75000D01*
G01*
X112956000Y-81335000D01*
G75*
G02*
X112881000Y-81410000I-75000J0D01*
G01*
X111481000Y-81410000D01*
G75*
G02*
X111406000Y-81335000I0J75000D01*
G01*
G37*
G36*
G01*
X111406000Y-80835000D02*
X111406000Y-80685000D01*
G75*
G02*
X111481000Y-80610000I75000J0D01*
G01*
X112881000Y-80610000D01*
G75*
G02*
X112956000Y-80685000I0J-75000D01*
G01*
X112956000Y-80835000D01*
G75*
G02*
X112881000Y-80910000I-75000J0D01*
G01*
X111481000Y-80910000D01*
G75*
G02*
X111406000Y-80835000I0J75000D01*
G01*
G37*
G36*
G01*
X111406000Y-80335000D02*
X111406000Y-80185000D01*
G75*
G02*
X111481000Y-80110000I75000J0D01*
G01*
X112881000Y-80110000D01*
G75*
G02*
X112956000Y-80185000I0J-75000D01*
G01*
X112956000Y-80335000D01*
G75*
G02*
X112881000Y-80410000I-75000J0D01*
G01*
X111481000Y-80410000D01*
G75*
G02*
X111406000Y-80335000I0J75000D01*
G01*
G37*
G36*
G01*
X111406000Y-79835000D02*
X111406000Y-79685000D01*
G75*
G02*
X111481000Y-79610000I75000J0D01*
G01*
X112881000Y-79610000D01*
G75*
G02*
X112956000Y-79685000I0J-75000D01*
G01*
X112956000Y-79835000D01*
G75*
G02*
X112881000Y-79910000I-75000J0D01*
G01*
X111481000Y-79910000D01*
G75*
G02*
X111406000Y-79835000I0J75000D01*
G01*
G37*
G36*
G01*
X111406000Y-79335000D02*
X111406000Y-79185000D01*
G75*
G02*
X111481000Y-79110000I75000J0D01*
G01*
X112881000Y-79110000D01*
G75*
G02*
X112956000Y-79185000I0J-75000D01*
G01*
X112956000Y-79335000D01*
G75*
G02*
X112881000Y-79410000I-75000J0D01*
G01*
X111481000Y-79410000D01*
G75*
G02*
X111406000Y-79335000I0J75000D01*
G01*
G37*
G36*
G01*
X111406000Y-78835000D02*
X111406000Y-78685000D01*
G75*
G02*
X111481000Y-78610000I75000J0D01*
G01*
X112881000Y-78610000D01*
G75*
G02*
X112956000Y-78685000I0J-75000D01*
G01*
X112956000Y-78835000D01*
G75*
G02*
X112881000Y-78910000I-75000J0D01*
G01*
X111481000Y-78910000D01*
G75*
G02*
X111406000Y-78835000I0J75000D01*
G01*
G37*
G36*
G01*
X111406000Y-78335000D02*
X111406000Y-78185000D01*
G75*
G02*
X111481000Y-78110000I75000J0D01*
G01*
X112881000Y-78110000D01*
G75*
G02*
X112956000Y-78185000I0J-75000D01*
G01*
X112956000Y-78335000D01*
G75*
G02*
X112881000Y-78410000I-75000J0D01*
G01*
X111481000Y-78410000D01*
G75*
G02*
X111406000Y-78335000I0J75000D01*
G01*
G37*
G36*
G01*
X111406000Y-77835000D02*
X111406000Y-77685000D01*
G75*
G02*
X111481000Y-77610000I75000J0D01*
G01*
X112881000Y-77610000D01*
G75*
G02*
X112956000Y-77685000I0J-75000D01*
G01*
X112956000Y-77835000D01*
G75*
G02*
X112881000Y-77910000I-75000J0D01*
G01*
X111481000Y-77910000D01*
G75*
G02*
X111406000Y-77835000I0J75000D01*
G01*
G37*
G36*
G01*
X111406000Y-77335000D02*
X111406000Y-77185000D01*
G75*
G02*
X111481000Y-77110000I75000J0D01*
G01*
X112881000Y-77110000D01*
G75*
G02*
X112956000Y-77185000I0J-75000D01*
G01*
X112956000Y-77335000D01*
G75*
G02*
X112881000Y-77410000I-75000J0D01*
G01*
X111481000Y-77410000D01*
G75*
G02*
X111406000Y-77335000I0J75000D01*
G01*
G37*
G36*
G01*
X111406000Y-76835000D02*
X111406000Y-76685000D01*
G75*
G02*
X111481000Y-76610000I75000J0D01*
G01*
X112881000Y-76610000D01*
G75*
G02*
X112956000Y-76685000I0J-75000D01*
G01*
X112956000Y-76835000D01*
G75*
G02*
X112881000Y-76910000I-75000J0D01*
G01*
X111481000Y-76910000D01*
G75*
G02*
X111406000Y-76835000I0J75000D01*
G01*
G37*
G36*
G01*
X111406000Y-76335000D02*
X111406000Y-76185000D01*
G75*
G02*
X111481000Y-76110000I75000J0D01*
G01*
X112881000Y-76110000D01*
G75*
G02*
X112956000Y-76185000I0J-75000D01*
G01*
X112956000Y-76335000D01*
G75*
G02*
X112881000Y-76410000I-75000J0D01*
G01*
X111481000Y-76410000D01*
G75*
G02*
X111406000Y-76335000I0J75000D01*
G01*
G37*
%TD*%
%TO.C,C1*%
G36*
G01*
X156856000Y-72388000D02*
X156856000Y-78488000D01*
G75*
G02*
X156606000Y-78738000I-250000J0D01*
G01*
X155306000Y-78738000D01*
G75*
G02*
X155056000Y-78488000I0J250000D01*
G01*
X155056000Y-72388000D01*
G75*
G02*
X155306000Y-72138000I250000J0D01*
G01*
X156606000Y-72138000D01*
G75*
G02*
X156856000Y-72388000I0J-250000D01*
G01*
G37*
G36*
G01*
X151606000Y-72388000D02*
X151606000Y-78488000D01*
G75*
G02*
X151356000Y-78738000I-250000J0D01*
G01*
X150056000Y-78738000D01*
G75*
G02*
X149806000Y-78488000I0J250000D01*
G01*
X149806000Y-72388000D01*
G75*
G02*
X150056000Y-72138000I250000J0D01*
G01*
X151356000Y-72138000D01*
G75*
G02*
X151606000Y-72388000I0J-250000D01*
G01*
G37*
%TD*%
%TO.C,C2*%
G36*
G01*
X109102500Y-69393750D02*
X109102500Y-70306250D01*
G75*
G02*
X108858750Y-70550000I-243750J0D01*
G01*
X108371250Y-70550000D01*
G75*
G02*
X108127500Y-70306250I0J243750D01*
G01*
X108127500Y-69393750D01*
G75*
G02*
X108371250Y-69150000I243750J0D01*
G01*
X108858750Y-69150000D01*
G75*
G02*
X109102500Y-69393750I0J-243750D01*
G01*
G37*
G36*
G01*
X110977500Y-69393750D02*
X110977500Y-70306250D01*
G75*
G02*
X110733750Y-70550000I-243750J0D01*
G01*
X110246250Y-70550000D01*
G75*
G02*
X110002500Y-70306250I0J243750D01*
G01*
X110002500Y-69393750D01*
G75*
G02*
X110246250Y-69150000I243750J0D01*
G01*
X110733750Y-69150000D01*
G75*
G02*
X110977500Y-69393750I0J-243750D01*
G01*
G37*
%TD*%
%TO.C,C3*%
G36*
G01*
X125399500Y-87324250D02*
X125399500Y-86411750D01*
G75*
G02*
X125643250Y-86168000I243750J0D01*
G01*
X126130750Y-86168000D01*
G75*
G02*
X126374500Y-86411750I0J-243750D01*
G01*
X126374500Y-87324250D01*
G75*
G02*
X126130750Y-87568000I-243750J0D01*
G01*
X125643250Y-87568000D01*
G75*
G02*
X125399500Y-87324250I0J243750D01*
G01*
G37*
G36*
G01*
X127274500Y-87324250D02*
X127274500Y-86411750D01*
G75*
G02*
X127518250Y-86168000I243750J0D01*
G01*
X128005750Y-86168000D01*
G75*
G02*
X128249500Y-86411750I0J-243750D01*
G01*
X128249500Y-87324250D01*
G75*
G02*
X128005750Y-87568000I-243750J0D01*
G01*
X127518250Y-87568000D01*
G75*
G02*
X127274500Y-87324250I0J243750D01*
G01*
G37*
%TD*%
%TO.C,C4*%
G36*
G01*
X107130000Y-88594250D02*
X107130000Y-87681750D01*
G75*
G02*
X107373750Y-87438000I243750J0D01*
G01*
X107861250Y-87438000D01*
G75*
G02*
X108105000Y-87681750I0J-243750D01*
G01*
X108105000Y-88594250D01*
G75*
G02*
X107861250Y-88838000I-243750J0D01*
G01*
X107373750Y-88838000D01*
G75*
G02*
X107130000Y-88594250I0J243750D01*
G01*
G37*
G36*
G01*
X105255000Y-88594250D02*
X105255000Y-87681750D01*
G75*
G02*
X105498750Y-87438000I243750J0D01*
G01*
X105986250Y-87438000D01*
G75*
G02*
X106230000Y-87681750I0J-243750D01*
G01*
X106230000Y-88594250D01*
G75*
G02*
X105986250Y-88838000I-243750J0D01*
G01*
X105498750Y-88838000D01*
G75*
G02*
X105255000Y-88594250I0J243750D01*
G01*
G37*
%TD*%
%TO.C,C5*%
G36*
G01*
X116001500Y-69798250D02*
X116001500Y-68885750D01*
G75*
G02*
X116245250Y-68642000I243750J0D01*
G01*
X116732750Y-68642000D01*
G75*
G02*
X116976500Y-68885750I0J-243750D01*
G01*
X116976500Y-69798250D01*
G75*
G02*
X116732750Y-70042000I-243750J0D01*
G01*
X116245250Y-70042000D01*
G75*
G02*
X116001500Y-69798250I0J243750D01*
G01*
G37*
G36*
G01*
X117876500Y-69798250D02*
X117876500Y-68885750D01*
G75*
G02*
X118120250Y-68642000I243750J0D01*
G01*
X118607750Y-68642000D01*
G75*
G02*
X118851500Y-68885750I0J-243750D01*
G01*
X118851500Y-69798250D01*
G75*
G02*
X118607750Y-70042000I-243750J0D01*
G01*
X118120250Y-70042000D01*
G75*
G02*
X117876500Y-69798250I0J243750D01*
G01*
G37*
%TD*%
%TO.C,C6*%
G36*
G01*
X94994000Y-64919000D02*
X94994000Y-54969000D01*
G75*
G02*
X95244000Y-54719000I250000J0D01*
G01*
X96844000Y-54719000D01*
G75*
G02*
X97094000Y-54969000I0J-250000D01*
G01*
X97094000Y-64919000D01*
G75*
G02*
X96844000Y-65169000I-250000J0D01*
G01*
X95244000Y-65169000D01*
G75*
G02*
X94994000Y-64919000I0J250000D01*
G01*
G37*
G36*
G01*
X103344000Y-64919000D02*
X103344000Y-54969000D01*
G75*
G02*
X103594000Y-54719000I250000J0D01*
G01*
X105194000Y-54719000D01*
G75*
G02*
X105444000Y-54969000I0J-250000D01*
G01*
X105444000Y-64919000D01*
G75*
G02*
X105194000Y-65169000I-250000J0D01*
G01*
X103594000Y-65169000D01*
G75*
G02*
X103344000Y-64919000I0J250000D01*
G01*
G37*
%TD*%
%TO.C,C7*%
G36*
G01*
X157446000Y-93621000D02*
X157446000Y-83671000D01*
G75*
G02*
X157696000Y-83421000I250000J0D01*
G01*
X159296000Y-83421000D01*
G75*
G02*
X159546000Y-83671000I0J-250000D01*
G01*
X159546000Y-93621000D01*
G75*
G02*
X159296000Y-93871000I-250000J0D01*
G01*
X157696000Y-93871000D01*
G75*
G02*
X157446000Y-93621000I0J250000D01*
G01*
G37*
G36*
G01*
X149096000Y-93621000D02*
X149096000Y-83671000D01*
G75*
G02*
X149346000Y-83421000I250000J0D01*
G01*
X150946000Y-83421000D01*
G75*
G02*
X151196000Y-83671000I0J-250000D01*
G01*
X151196000Y-93621000D01*
G75*
G02*
X150946000Y-93871000I-250000J0D01*
G01*
X149346000Y-93871000D01*
G75*
G02*
X149096000Y-93621000I0J250000D01*
G01*
G37*
%TD*%
%TO.C,C8*%
G36*
G01*
X108050500Y-82292000D02*
X107849500Y-82292000D01*
G75*
G02*
X107770000Y-82212500I0J79500D01*
G01*
X107770000Y-82053500D01*
G75*
G02*
X107849500Y-81974000I79500J0D01*
G01*
X108050500Y-81974000D01*
G75*
G02*
X108130000Y-82053500I0J-79500D01*
G01*
X108130000Y-82212500D01*
G75*
G02*
X108050500Y-82292000I-79500J0D01*
G01*
G37*
G36*
G01*
X108050500Y-81602000D02*
X107849500Y-81602000D01*
G75*
G02*
X107770000Y-81522500I0J79500D01*
G01*
X107770000Y-81363500D01*
G75*
G02*
X107849500Y-81284000I79500J0D01*
G01*
X108050500Y-81284000D01*
G75*
G02*
X108130000Y-81363500I0J-79500D01*
G01*
X108130000Y-81522500D01*
G75*
G02*
X108050500Y-81602000I-79500J0D01*
G01*
G37*
%TD*%
%TO.C,C9*%
G36*
G01*
X109320500Y-84650000D02*
X109119500Y-84650000D01*
G75*
G02*
X109040000Y-84570500I0J79500D01*
G01*
X109040000Y-84411500D01*
G75*
G02*
X109119500Y-84332000I79500J0D01*
G01*
X109320500Y-84332000D01*
G75*
G02*
X109400000Y-84411500I0J-79500D01*
G01*
X109400000Y-84570500D01*
G75*
G02*
X109320500Y-84650000I-79500J0D01*
G01*
G37*
G36*
G01*
X109320500Y-85340000D02*
X109119500Y-85340000D01*
G75*
G02*
X109040000Y-85260500I0J79500D01*
G01*
X109040000Y-85101500D01*
G75*
G02*
X109119500Y-85022000I79500J0D01*
G01*
X109320500Y-85022000D01*
G75*
G02*
X109400000Y-85101500I0J-79500D01*
G01*
X109400000Y-85260500D01*
G75*
G02*
X109320500Y-85340000I-79500J0D01*
G01*
G37*
%TD*%
%TO.C,C10*%
G36*
G01*
X104978500Y-69647750D02*
X104978500Y-70560250D01*
G75*
G02*
X104734750Y-70804000I-243750J0D01*
G01*
X104247250Y-70804000D01*
G75*
G02*
X104003500Y-70560250I0J243750D01*
G01*
X104003500Y-69647750D01*
G75*
G02*
X104247250Y-69404000I243750J0D01*
G01*
X104734750Y-69404000D01*
G75*
G02*
X104978500Y-69647750I0J-243750D01*
G01*
G37*
G36*
G01*
X103103500Y-69647750D02*
X103103500Y-70560250D01*
G75*
G02*
X102859750Y-70804000I-243750J0D01*
G01*
X102372250Y-70804000D01*
G75*
G02*
X102128500Y-70560250I0J243750D01*
G01*
X102128500Y-69647750D01*
G75*
G02*
X102372250Y-69404000I243750J0D01*
G01*
X102859750Y-69404000D01*
G75*
G02*
X103103500Y-69647750I0J-243750D01*
G01*
G37*
%TD*%
%TO.C,C11*%
G36*
G01*
X103906500Y-84022250D02*
X103906500Y-83109750D01*
G75*
G02*
X104150250Y-82866000I243750J0D01*
G01*
X104637750Y-82866000D01*
G75*
G02*
X104881500Y-83109750I0J-243750D01*
G01*
X104881500Y-84022250D01*
G75*
G02*
X104637750Y-84266000I-243750J0D01*
G01*
X104150250Y-84266000D01*
G75*
G02*
X103906500Y-84022250I0J243750D01*
G01*
G37*
G36*
G01*
X102031500Y-84022250D02*
X102031500Y-83109750D01*
G75*
G02*
X102275250Y-82866000I243750J0D01*
G01*
X102762750Y-82866000D01*
G75*
G02*
X103006500Y-83109750I0J-243750D01*
G01*
X103006500Y-84022250D01*
G75*
G02*
X102762750Y-84266000I-243750J0D01*
G01*
X102275250Y-84266000D01*
G75*
G02*
X102031500Y-84022250I0J243750D01*
G01*
G37*
%TD*%
%TO.C,C12*%
G36*
G01*
X162834500Y-73608250D02*
X162834500Y-72695750D01*
G75*
G02*
X163078250Y-72452000I243750J0D01*
G01*
X163565750Y-72452000D01*
G75*
G02*
X163809500Y-72695750I0J-243750D01*
G01*
X163809500Y-73608250D01*
G75*
G02*
X163565750Y-73852000I-243750J0D01*
G01*
X163078250Y-73852000D01*
G75*
G02*
X162834500Y-73608250I0J243750D01*
G01*
G37*
G36*
G01*
X164709500Y-73608250D02*
X164709500Y-72695750D01*
G75*
G02*
X164953250Y-72452000I243750J0D01*
G01*
X165440750Y-72452000D01*
G75*
G02*
X165684500Y-72695750I0J-243750D01*
G01*
X165684500Y-73608250D01*
G75*
G02*
X165440750Y-73852000I-243750J0D01*
G01*
X164953250Y-73852000D01*
G75*
G02*
X164709500Y-73608250I0J243750D01*
G01*
G37*
%TD*%
%TO.C,C13*%
G36*
G01*
X170884000Y-80466250D02*
X170884000Y-79553750D01*
G75*
G02*
X171127750Y-79310000I243750J0D01*
G01*
X171615250Y-79310000D01*
G75*
G02*
X171859000Y-79553750I0J-243750D01*
G01*
X171859000Y-80466250D01*
G75*
G02*
X171615250Y-80710000I-243750J0D01*
G01*
X171127750Y-80710000D01*
G75*
G02*
X170884000Y-80466250I0J243750D01*
G01*
G37*
G36*
G01*
X169009000Y-80466250D02*
X169009000Y-79553750D01*
G75*
G02*
X169252750Y-79310000I243750J0D01*
G01*
X169740250Y-79310000D01*
G75*
G02*
X169984000Y-79553750I0J-243750D01*
G01*
X169984000Y-80466250D01*
G75*
G02*
X169740250Y-80710000I-243750J0D01*
G01*
X169252750Y-80710000D01*
G75*
G02*
X169009000Y-80466250I0J243750D01*
G01*
G37*
%TD*%
%TO.C,C14*%
G36*
G01*
X160308000Y-98911000D02*
X160308000Y-108861000D01*
G75*
G02*
X160058000Y-109111000I-250000J0D01*
G01*
X158458000Y-109111000D01*
G75*
G02*
X158208000Y-108861000I0J250000D01*
G01*
X158208000Y-98911000D01*
G75*
G02*
X158458000Y-98661000I250000J0D01*
G01*
X160058000Y-98661000D01*
G75*
G02*
X160308000Y-98911000I0J-250000D01*
G01*
G37*
G36*
G01*
X151958000Y-98911000D02*
X151958000Y-108861000D01*
G75*
G02*
X151708000Y-109111000I-250000J0D01*
G01*
X150108000Y-109111000D01*
G75*
G02*
X149858000Y-108861000I0J250000D01*
G01*
X149858000Y-98911000D01*
G75*
G02*
X150108000Y-98661000I250000J0D01*
G01*
X151708000Y-98661000D01*
G75*
G02*
X151958000Y-98911000I0J-250000D01*
G01*
G37*
%TD*%
%TO.C,C15*%
G36*
G01*
X172178000Y-108353000D02*
X172178000Y-98403000D01*
G75*
G02*
X172428000Y-98153000I250000J0D01*
G01*
X174028000Y-98153000D01*
G75*
G02*
X174278000Y-98403000I0J-250000D01*
G01*
X174278000Y-108353000D01*
G75*
G02*
X174028000Y-108603000I-250000J0D01*
G01*
X172428000Y-108603000D01*
G75*
G02*
X172178000Y-108353000I0J250000D01*
G01*
G37*
G36*
G01*
X163828000Y-108353000D02*
X163828000Y-98403000D01*
G75*
G02*
X164078000Y-98153000I250000J0D01*
G01*
X165678000Y-98153000D01*
G75*
G02*
X165928000Y-98403000I0J-250000D01*
G01*
X165928000Y-108353000D01*
G75*
G02*
X165678000Y-108603000I-250000J0D01*
G01*
X164078000Y-108603000D01*
G75*
G02*
X163828000Y-108353000I0J250000D01*
G01*
G37*
%TD*%
D12*
%TO.C,D1*%
X169418000Y-90678000D03*
X171318000Y-90678000D03*
%TD*%
%TO.C,L1*%
G36*
G01*
X94964000Y-82513000D02*
X94964000Y-81063000D01*
G75*
G02*
X95339000Y-80688000I375000J0D01*
G01*
X96089000Y-80688000D01*
G75*
G02*
X96464000Y-81063000I0J-375000D01*
G01*
X96464000Y-82513000D01*
G75*
G02*
X96089000Y-82888000I-375000J0D01*
G01*
X95339000Y-82888000D01*
G75*
G02*
X94964000Y-82513000I0J375000D01*
G01*
G37*
G36*
G01*
X89464000Y-82513000D02*
X89464000Y-81063000D01*
G75*
G02*
X89839000Y-80688000I375000J0D01*
G01*
X90589000Y-80688000D01*
G75*
G02*
X90964000Y-81063000I0J-375000D01*
G01*
X90964000Y-82513000D01*
G75*
G02*
X90589000Y-82888000I-375000J0D01*
G01*
X89839000Y-82888000D01*
G75*
G02*
X89464000Y-82513000I0J375000D01*
G01*
G37*
%TD*%
%TO.C,L2*%
G36*
G01*
X144426000Y-87667000D02*
X144426000Y-89117000D01*
G75*
G02*
X144051000Y-89492000I-375000J0D01*
G01*
X143301000Y-89492000D01*
G75*
G02*
X142926000Y-89117000I0J375000D01*
G01*
X142926000Y-87667000D01*
G75*
G02*
X143301000Y-87292000I375000J0D01*
G01*
X144051000Y-87292000D01*
G75*
G02*
X144426000Y-87667000I0J-375000D01*
G01*
G37*
G36*
G01*
X138926000Y-87667000D02*
X138926000Y-89117000D01*
G75*
G02*
X138551000Y-89492000I-375000J0D01*
G01*
X137801000Y-89492000D01*
G75*
G02*
X137426000Y-89117000I0J375000D01*
G01*
X137426000Y-87667000D01*
G75*
G02*
X137801000Y-87292000I375000J0D01*
G01*
X138551000Y-87292000D01*
G75*
G02*
X138926000Y-87667000I0J-375000D01*
G01*
G37*
%TD*%
D13*
%TO.C,Q1*%
X176140000Y-85350000D03*
X176140000Y-89910000D03*
D14*
X184115000Y-89155000D03*
X180765000Y-86105000D03*
X184115000Y-86105000D03*
X180765000Y-89155000D03*
%TD*%
D15*
%TO.C,SW1*%
X128814000Y-52418000D03*
X131814000Y-52418000D03*
X133314000Y-52418000D03*
D16*
X127414000Y-55278000D03*
X134714000Y-55278000D03*
X134714000Y-53068000D03*
X127414000Y-53068000D03*
%TD*%
D17*
%TO.C,U2*%
X131404000Y-63500000D03*
X131404000Y-64450000D03*
X131404000Y-65400000D03*
X133604000Y-65400000D03*
X133604000Y-63500000D03*
X133604000Y-64450000D03*
%TD*%
D18*
%TO.C,Y1*%
X104578000Y-79162000D03*
X104578000Y-74762000D03*
X102178000Y-74762000D03*
X102178000Y-79162000D03*
%TD*%
M02*
