%TF.GenerationSoftware,KiCad,Pcbnew,(5.1.6)-1*%
%TF.CreationDate,2021-02-28T15:35:06+06:00*%
%TF.ProjectId,STM32MCU + Buck Converter,53544d33-324d-4435-9520-2b204275636b,rev?*%
%TF.SameCoordinates,Original*%
%TF.FileFunction,Copper,L3,Inr*%
%TF.FilePolarity,Positive*%
%FSLAX46Y46*%
G04 Gerber Fmt 4.6, Leading zero omitted, Abs format (unit mm)*
G04 Created by KiCad (PCBNEW (5.1.6)-1) date 2021-02-28 15:35:06*
%MOMM*%
%LPD*%
G01*
G04 APERTURE LIST*
%TA.AperFunction,ViaPad*%
%ADD10C,5.000000*%
%TD*%
%TA.AperFunction,ViaPad*%
%ADD11O,1.900000X1.200000*%
%TD*%
%TA.AperFunction,ViaPad*%
%ADD12C,1.450000*%
%TD*%
%TA.AperFunction,ViaPad*%
%ADD13C,2.600000*%
%TD*%
%TA.AperFunction,ViaPad*%
%ADD14R,2.600000X2.600000*%
%TD*%
%TA.AperFunction,ViaPad*%
%ADD15O,1.350000X1.350000*%
%TD*%
%TA.AperFunction,ViaPad*%
%ADD16R,1.350000X1.350000*%
%TD*%
%TA.AperFunction,ViaPad*%
%ADD17C,2.010000*%
%TD*%
%TA.AperFunction,ViaPad*%
%ADD18O,1.730000X2.030000*%
%TD*%
%TA.AperFunction,ViaPad*%
%ADD19R,1.730000X2.030000*%
%TD*%
%TA.AperFunction,ViaPad*%
%ADD20C,2.400000*%
%TD*%
%TA.AperFunction,ViaPad*%
%ADD21O,2.400000X2.400000*%
%TD*%
%TA.AperFunction,ViaPad*%
%ADD22C,0.800000*%
%TD*%
G04 APERTURE END LIST*
D10*
%TO.N,N/C*%
%TO.C,REF\u002A\u002A*%
X83312000Y-103886000D03*
%TD*%
%TO.N,N/C*%
%TO.C,REF\u002A\u002A*%
X83058000Y-37592000D03*
%TD*%
D11*
%TO.N,N/C*%
%TO.C,J5*%
X185133500Y-69144000D03*
X185133500Y-76144000D03*
D12*
X182433500Y-70144000D03*
X182433500Y-75144000D03*
%TD*%
D13*
%TO.N,GND*%
%TO.C,J1*%
X181300000Y-37592000D03*
D14*
%TO.N,+12V*%
X177800000Y-37592000D03*
%TD*%
D15*
%TO.N,NRST*%
%TO.C,J2*%
X80804000Y-57532000D03*
%TO.N,GND*%
X82804000Y-57532000D03*
%TO.N,Net-(J2-Pad8)*%
X80804000Y-59532000D03*
%TO.N,Net-(J2-Pad7)*%
X82804000Y-59532000D03*
%TO.N,SWD*%
X80804000Y-61532000D03*
%TO.N,GND*%
X82804000Y-61532000D03*
%TO.N,SWCLK*%
X80804000Y-63532000D03*
%TO.N,GND*%
X82804000Y-63532000D03*
%TO.N,SWDIO*%
X80804000Y-65532000D03*
D16*
%TO.N,+3V3*%
X82804000Y-65532000D03*
%TD*%
D17*
%TO.N,Net-(F1-Pad1)*%
%TO.C,F1*%
X115570000Y-44958000D03*
%TO.N,+12V*%
X116770000Y-39858000D03*
%TD*%
D18*
%TO.N,GND*%
%TO.C,J3*%
X111760000Y-62230000D03*
%TO.N,I2C1_SDA*%
X114300000Y-62230000D03*
%TO.N,I2C1_SCL*%
X116840000Y-62230000D03*
D19*
%TO.N,+3V3*%
X119380000Y-62230000D03*
%TD*%
%TO.N,+3V3*%
%TO.C,J4*%
X115824000Y-95504000D03*
D18*
%TO.N,UART3_Tx*%
X118364000Y-95504000D03*
%TO.N,UART3_Rx*%
X120904000Y-95504000D03*
%TO.N,GND*%
X123444000Y-95504000D03*
%TD*%
D20*
%TO.N,+3V3*%
%TO.C,R1*%
X132080000Y-107696000D03*
D21*
%TO.N,I2C1_SCL*%
X132080000Y-94996000D03*
%TD*%
%TO.N,I2C1_SDA*%
%TO.C,R2*%
X107696000Y-95758000D03*
D20*
%TO.N,+3V3*%
X107696000Y-108458000D03*
%TD*%
%TO.N,+3.3VA*%
%TO.C,R3*%
X147066000Y-46990000D03*
D21*
%TO.N,Buck_FB*%
X147066000Y-59690000D03*
%TD*%
%TO.N,Net-(R4-Pad2)*%
%TO.C,R4*%
X180340000Y-47244000D03*
D20*
%TO.N,Buck_FB*%
X180340000Y-59944000D03*
%TD*%
%TO.N,Net-(R4-Pad2)*%
%TO.C,R5*%
X172466000Y-47498000D03*
D21*
%TO.N,GND*%
X172466000Y-60198000D03*
%TD*%
D20*
%TO.N,Buck_IN*%
%TO.C,R6*%
X164592000Y-59944000D03*
D21*
%TO.N,Buck_EN*%
X164592000Y-47244000D03*
%TD*%
%TO.N,GND*%
%TO.C,R7*%
X155448000Y-59944000D03*
D20*
%TO.N,Buck_EN*%
X155448000Y-47244000D03*
%TD*%
D22*
%TO.N,Net-(C1-Pad1)*%
X125730000Y-103886000D03*
X146050000Y-82550000D03*
%TO.N,GND*%
X85344000Y-57404000D03*
X84582000Y-63754000D03*
X99568000Y-71120000D03*
X98806000Y-74676000D03*
X161036000Y-87630000D03*
X150622000Y-65532000D03*
X169164000Y-72644000D03*
X172466000Y-60198000D03*
X173228000Y-85598000D03*
X173482000Y-90170000D03*
X148082000Y-103886000D03*
X93218000Y-60198000D03*
X129794000Y-59690000D03*
X155448000Y-59944000D03*
X105918000Y-83566000D03*
X147320000Y-97790000D03*
X158242000Y-95504000D03*
X127762000Y-91694000D03*
X113284000Y-89154000D03*
X124460000Y-88646000D03*
X97282000Y-73406000D03*
X97536000Y-70358000D03*
X113284000Y-73660000D03*
X112268000Y-70649000D03*
X97282000Y-80010000D03*
X98806000Y-76708000D03*
X111506000Y-92202000D03*
X113284000Y-92202000D03*
X162814000Y-88392000D03*
X166116000Y-91440000D03*
%TO.N,+3V3*%
X135890000Y-89662000D03*
X157734000Y-70866000D03*
X159258000Y-103886000D03*
X129286000Y-107696000D03*
X113792000Y-94742000D03*
X107696000Y-108458000D03*
X108204000Y-63500000D03*
X126492000Y-50546000D03*
X122682000Y-61976000D03*
X110490000Y-88138000D03*
X114046000Y-88138000D03*
X109728000Y-73660000D03*
X108966000Y-71374000D03*
X83312000Y-68326000D03*
X82804000Y-76708000D03*
X127000000Y-85090000D03*
X107950000Y-53340000D03*
X120396000Y-52070000D03*
X122936000Y-90932000D03*
X164592000Y-86868000D03*
X162052000Y-77470000D03*
X130810000Y-69342000D03*
X125730000Y-84836000D03*
%TO.N,Net-(C7-Pad1)*%
X129540000Y-70104000D03*
X139700000Y-76454000D03*
X134620000Y-88138000D03*
X144272000Y-107950000D03*
X148082000Y-107696000D03*
X147320000Y-93218000D03*
%TO.N,+3.3VA*%
X147066000Y-44958000D03*
X99314000Y-81788000D03*
X109728000Y-81788000D03*
X110236000Y-83312000D03*
X139954000Y-44958000D03*
%TO.N,HSE_IN*%
X106680000Y-71120000D03*
X107442000Y-76962000D03*
%TO.N,HSE_OUT*%
X112072153Y-75125847D03*
X108204000Y-75184000D03*
X106426000Y-75946000D03*
X105918000Y-76708000D03*
%TO.N,Buck_SW*%
X140462000Y-67310000D03*
X144272000Y-74930000D03*
X152908000Y-81026000D03*
X142240000Y-81026000D03*
%TO.N,Buck_IN*%
X133858000Y-57912000D03*
X139700000Y-58420000D03*
X171196000Y-67564000D03*
X154178000Y-66040000D03*
X155194000Y-62738000D03*
%TO.N,Net-(F1-Pad1)*%
X183896000Y-63500000D03*
X175768000Y-81788000D03*
%TO.N,SWDIO*%
X98806000Y-67310000D03*
X127508000Y-71882000D03*
%TO.N,SWD*%
X123444000Y-68580000D03*
X122428000Y-73152000D03*
%TO.N,NRST*%
X88138000Y-60960000D03*
X88138000Y-72898000D03*
X99314000Y-80010000D03*
X110689108Y-80064892D03*
%TO.N,I2C1_SDA*%
X113030000Y-66802000D03*
X114808000Y-72861000D03*
%TO.N,I2C1_SCL*%
X114300000Y-68580000D03*
X119126000Y-72861000D03*
%TO.N,Buck_FB*%
X184404000Y-62230000D03*
%TO.N,BOOT0*%
X115987444Y-72999020D03*
X135382000Y-59944000D03*
%TO.N,USB_D-*%
X148590000Y-69613000D03*
X175514000Y-69613000D03*
%TO.N,USB_D+*%
X148590000Y-68563000D03*
X175514000Y-68563000D03*
%TD*%
M02*
